<svg xmlns="http://www.w3.org/2000/svg" xmlns:xlink="http://www.w3.org/1999/xlink" viewBox="0 0 715.88 715.88"><defs><style>.cls-1{fill:#1cedf2;}.cls-2{clip-path:url(#clip-path);}.cls-3,.cls-4{fill:#a5f9f7;}.cls-3{opacity:0.08;}.cls-4{opacity:0.34;}.cls-5{fill:#038427;}.cls-6{fill:#13aa37;}</style><clipPath id="clip-path"><circle class="cls-1" cx="357.94" cy="357.94" r="357.94"/></clipPath></defs><g id="Layer_2" data-name="Layer 2"><g id="Layer_1-2" data-name="Layer 1"><circle class="cls-1" cx="357.94" cy="357.94" r="357.94"/><g class="cls-2"><circle class="cls-3" cx="357.94" cy="357.94" r="307.84"/><circle class="cls-4" cx="357.94" cy="357.94" r="307.84"/><circle class="cls-4" cx="357.94" cy="357.94" r="219.16"/><path class="cls-5" d="M-10.76,444.85s51,49,94.27-18.14,68.09-26.77,104.54-37.12,58.29-66.23-10-100-44.56-44.66-41.78-83.45S116.57,58.31,32.89,131.66-10.76,444.85-10.76,444.85Z"/><path class="cls-6" d="M1.08,424.94S44.89,467,82,409.37s58.47-23,89.76-31.88,50.05-56.86-8.58-85.85S124.94,253.29,127.33,220,110.41,93.06,38.56,156,1.08,424.94,1.08,424.94Z"/><path class="cls-5" d="M226.86,16.65c-27.88,20.48-27.86,62.77.87,82,15.5,10.4,34.51,10.28,55.3-17.78C336.68,8.47,367,37.6,388,7.43s54.09-188.81-110-120C130.79-50.86,308.71-43.48,226.86,16.65Z"/><path class="cls-6" d="M237.61,10.24c-23.32,17.14-23.31,52.51.73,68.63,13,8.69,28.86,8.6,46.25-14.88C329.47,3.4,354.84,27.77,372.42,2.53s45.24-157.93-92-100.38C157.25-46.23,306.08-40,237.61,10.24Z"/><path class="cls-5" d="M356.81,760.3s37.27-19.5-28.81-77.64-74.79-21.46-124.82-88-104.9-39.78-142-1.17S249.32,850.16,356.81,760.3Z"/><path class="cls-6" d="M331,745.47s30.7-16.06-23.73-64S245.63,663.83,204.42,609s-86.42-32.76-117-1S242.43,819.5,331,745.47Z"/><path class="cls-5" d="M524.54,149.41c11.57-28,11.37-59.63-2.49-86.54-6-11.61-8.56-26.42-3.59-45C534.79-43.3,561.29,53.3,620.21,63.69s86.18,57.19,75.47,84.23-87.09,113.62-126.34,78.19C541.53,201,510.81,182.62,524.54,149.41Z"/><path class="cls-6" d="M536.49,148c9.8-23.69,9.63-50.49-2.11-73.28-5.07-9.84-7.25-22.38-3-38.11,13.83-51.8,36.27,30,86.17,38.81s73,48.42,63.91,71.32S607.66,243,574.42,213C550.87,191.7,524.86,176.13,536.49,148Z"/><path class="cls-5" d="M298.58,271.61s-29.23-53.31,41.48-83.8S421.17,221,456,218.49,541.34,270.25,502.5,295s-65.6,53.15-113.3,48S298.58,271.61,298.58,271.61Z"/><path class="cls-6" d="M321.47,269.61s-22.9-41.78,32.51-65.67,63.56,26,90.82,24,66.9,40.55,36.47,60-51.41,41.65-88.79,37.58S321.47,269.61,321.47,269.61Z"/><path class="cls-5" d="M344.15,581.79s-47.06-1.15-53.4-51.68,44.1-35.17,50.39-55.86,59.09-31.4,68.63-1,24.62,55.2,9.49,80.67S344.15,581.79,344.15,581.79Z"/><path class="cls-6" d="M348,568.06s-36.87-.9-41.85-40.5,34.57-27.56,39.49-43.77S392,459.18,399.44,483s19.3,43.25,7.44,63.21S348,568.06,348,568.06Z"/><path class="cls-5" d="M549.51,666.75S521.27,629.2,532.92,548.3s50.32-97.65,96.25-105.68,129.16-13.26,129.16-13.26L680.61,667.75Z"/><path class="cls-6" d="M568.65,642.76s-22.78-30.28-13.38-95.53S595.85,468.47,632.9,462s104.16-10.7,104.16-10.7L674.38,643.57Z"/></g></g></g></svg>